# xmcd
#
# Track frame offsets:
#	4655
#	24010
#	39655
#	57493
#	76463
#	92930
#	108358
#	133258
#	152223
#	165965
#	180065
#	199500
#	224233
#	243490
#	261403
#	275528
#	292910
#	311595
#
# Disc length: 4462
#
# Revision: 2
# Processed by: cddbd v1.5.1PL0 Copyright (c) Steve Scherf et al.
# Submitted via: CD-Runner 7.0
# Normalized: r1:TDELIM( - )
#
DISCID=05113012
DTITLE=Various Artist - 18 Soul Classics - Vol 2
DYEAR=1900
DGENRE=
TTITLE0=Jermaine Jackson - Do What You Do
TTITLE1=Dionne Warwick - All The Love in the World
TTITLE2=Kool and The Gang - Joanna
TTITLE3=Shalamar - A Night to Remember
TTITLE4=Sade - Your Love is King
TTITLE5=Stephanie Mills - Never Knew Love Like This Before
TTITLE6=Atlantic Starr - Secret Lovers
TTITLE7=Jeffrey Osborne - Stay With Me Tonight
TTITLE8=Drifters - There Goes My First Love
TTITLE9=Gloria Gaynor - Reach Out I`ll Be There
TTITLE10=Quincy Jones feat. James Ingram - One Hundred Ways
TTITLE11=The Stylistics - You Make Me Feel Brand New
TTITLE12=Barry White - Never Never Gonna Give You Up
TTITLE13=Three Degrees - Woman in Love
TTITLE14=Isley Brothers - Summer Breeze
TTITLE15=Marvin Gaye - My Love is Waiting
TTITLE16=Bill Withers - Lovely Day (Remix)
TTITLE17=Aretha Franklin - What a Fool Believes
EXTD=one in a set of four\nPickwick Music - PMP 105
EXTT0=
EXTT1=
EXTT2=
EXTT3=
EXTT4=
EXTT5=
EXTT6=
EXTT7=
EXTT8=
EXTT9=
EXTT10=
EXTT11=
EXTT12=
EXTT13=
EXTT14=
EXTT15=
EXTT16=
EXTT17=
PLAYORDER=
